<?xml version="1.0" encoding="UTF-8" standalone="no"?>
<!-- Created with Inkscape (http://www.inkscape.org/) -->

<svg
   xmlns:dc="http://purl.org/dc/elements/1.1/"
   xmlns:cc="http://creativecommons.org/ns#"
   xmlns:rdf="http://www.w3.org/1999/02/22-rdf-syntax-ns#"
   xmlns:svg="http://www.w3.org/2000/svg"
   xmlns="http://www.w3.org/2000/svg"
   xmlns:sodipodi="http://sodipodi.sourceforge.net/DTD/sodipodi-0.dtd"
   xmlns:inkscape="http://www.inkscape.org/namespaces/inkscape"
   width="48"
   height="48"
   viewBox="0 0 12.7 12.7"
   version="1.1"
   id="svg7025"
   inkscape:version="0.92.1 r15371"
   sodipodi:docname="database.svg"
   inkscape:export-filename="/home/scwook/git/Drawing.Image/icons/export/4.7inch/database_black_fill_48x48.png"
   inkscape:export-xdpi="90"
   inkscape:export-ydpi="90">
  <defs
     id="defs7019" />
  <sodipodi:namedview
     id="base"
     pagecolor="#c8c8c8"
     bordercolor="#666666"
     borderopacity="1.0"
     inkscape:pageopacity="0"
     inkscape:pageshadow="2"
     inkscape:zoom="8"
     inkscape:cx="-2.115693"
     inkscape:cy="10.929227"
     inkscape:document-units="px"
     inkscape:current-layer="layer1"
     showgrid="false"
     units="px"
     inkscape:showpageshadow="false"
     showguides="true"
     inkscape:window-width="1920"
     inkscape:window-height="1020"
     inkscape:window-x="0"
     inkscape:window-y="31"
     inkscape:window-maximized="1">
    <inkscape:grid
       type="xygrid"
       id="grid7570" />
  </sodipodi:namedview>
  <metadata
     id="metadata7022">
    <rdf:RDF>
      <cc:Work
         rdf:about="">
        <dc:format>image/svg+xml</dc:format>
        <dc:type
           rdf:resource="http://purl.org/dc/dcmitype/StillImage" />
        <dc:title></dc:title>
      </cc:Work>
    </rdf:RDF>
  </metadata>
  <g
     inkscape:label="fill"
     inkscape:groupmode="layer"
     id="layer1"
     transform="translate(0,-284.3)"
     style="display:inline">
    <g
       id="g8100"
       transform="matrix(3,0,0,3,3.5e-8,-594.00005)">
      <ellipse
         ry="0.49683028"
         rx="1.490491"
         cy="293.39578"
         cx="2.1166668"
         id="path7656"
         style="opacity:1;vector-effect:none;fill:#000000;fill-opacity:1;stroke:none;stroke-width:0.26552674;stroke-linecap:butt;stroke-linejoin:round;stroke-miterlimit:4;stroke-dasharray:none;stroke-dashoffset:0;stroke-opacity:0.39215686;paint-order:fill markers stroke" />
      <path
         inkscape:connector-curvature="0"
         id="path7656-2"
         d="m 3.6079333,293.91202 a 1.4943724,0.49683029 0 0 1 -1.4912671,0.47587 1.4943724,0.49683029 0 0 1 -1.48971469,-0.45918 v 0.94553 a 1.4912672,0.49683029 0 0 0 -0.001552,0.0106 1.4912672,0.49683029 0 0 0 1.49126719,0.49683 1.4912672,0.49683029 0 0 0 1.490879,-0.49527 h 3.881e-4 v -0.002 z"
         style="opacity:1;vector-effect:none;fill:#000000;fill-opacity:1;stroke:none;stroke-width:0.26559588;stroke-linecap:butt;stroke-linejoin:round;stroke-miterlimit:4;stroke-dasharray:none;stroke-dashoffset:0;stroke-opacity:0.39215686;paint-order:fill markers stroke" />
      <path
         inkscape:connector-curvature="0"
         id="path7656-2-9"
         d="m 3.6079335,295.3981 a 1.4943724,0.49683029 0 0 1 -1.491267,0.47587 1.4943724,0.49683029 0 0 1 -1.48971468,-0.45919 v 0.94554 a 1.4912672,0.49683029 0 0 0 -0.001552,0.0106 1.4912672,0.49683029 0 0 0 1.49126718,0.49683 1.4912672,0.49683029 0 0 0 1.4908789,-0.49527 h 3.77e-4 v -0.002 z"
         style="display:inline;opacity:1;vector-effect:none;fill:#000000;fill-opacity:1;stroke:none;stroke-width:0.26559588;stroke-linecap:butt;stroke-linejoin:round;stroke-miterlimit:4;stroke-dasharray:none;stroke-dashoffset:0;stroke-opacity:0.39215686;paint-order:fill markers stroke" />
    </g>
  </g>
  <g
     inkscape:groupmode="layer"
     id="layer2"
     inkscape:label="stroke"
     style="display:none"
     transform="translate(0,8.4666667)">
    <g
       id="g8083"
       transform="matrix(3,0,0,3,0.01925509,-8.4916852)">
      <path
         id="path7656-28"
         d="M 3.5014011,0.73660435 A 1.3911527,0.46371752 0 0 1 2.1102483,1.200322 1.3911527,0.46371752 0 0 1 0.71909561,0.73660435 1.3911527,0.46371752 0 0 1 2.1102483,0.27288682 1.3911527,0.46371752 0 0 1 3.5014011,0.73660435 Z"
         style="opacity:1;vector-effect:none;fill:none;fill-opacity:1;stroke:#000000;stroke-width:0.26451394;stroke-linecap:butt;stroke-linejoin:round;stroke-miterlimit:4;stroke-dasharray:none;stroke-dashoffset:0;stroke-opacity:1;paint-order:fill markers stroke"
         inkscape:connector-curvature="0" />
      <path
         sodipodi:nodetypes="cccccccc"
         inkscape:connector-curvature="0"
         id="path7656-2-97"
         d="M 0.71982011,0.71015158 V 2.1165297 c -5.8749e-4,0.00328 -0.001071,0.00656 -0.001449,0.00984 -6.99e-6,0.2561058 0.62315969,0.4637217 1.39187719,0.4637217 0.7668746,-6.53e-5 1.3891169,-0.206777 1.3915149,-0.4622676 h 3.623e-4 v -0.00177 l -5e-7,-1.42056024"
         style="opacity:1;vector-effect:none;fill:none;fill-opacity:1;stroke:#000000;stroke-width:0.26451394;stroke-linecap:butt;stroke-linejoin:round;stroke-miterlimit:4;stroke-dasharray:none;stroke-dashoffset:0;stroke-opacity:1;paint-order:fill markers stroke" />
      <path
         sodipodi:nodetypes="cccccccc"
         inkscape:connector-curvature="0"
         id="path7656-2-9-3"
         d="m 0.71982012,2.151753 v 1.3518095 c -5.8749e-4,0.00328 -0.001071,0.00656 -0.001449,0.00984 -7.26e-6,0.2561069 0.62315938,0.463723 1.39187688,0.463723 0.7668745,-6.54e-5 1.3891166,-0.206777 1.3915148,-0.4622675 h 3.519e-4 v -0.00177 l 9.9e-6,-1.3605346"
         style="display:inline;opacity:1;vector-effect:none;fill:none;fill-opacity:1;stroke:#000000;stroke-width:0.26451394;stroke-linecap:butt;stroke-linejoin:round;stroke-miterlimit:4;stroke-dasharray:none;stroke-dashoffset:0;stroke-opacity:1;paint-order:fill markers stroke" />
    </g>
  </g>
</svg>
