<?xml version="1.0" encoding="UTF-8" standalone="no"?>
<!-- Created with Inkscape (http://www.inkscape.org/) -->

<svg
   xmlns:dc="http://purl.org/dc/elements/1.1/"
   xmlns:cc="http://creativecommons.org/ns#"
   xmlns:rdf="http://www.w3.org/1999/02/22-rdf-syntax-ns#"
   xmlns:svg="http://www.w3.org/2000/svg"
   xmlns="http://www.w3.org/2000/svg"
   xmlns:sodipodi="http://sodipodi.sourceforge.net/DTD/sodipodi-0.dtd"
   xmlns:inkscape="http://www.inkscape.org/namespaces/inkscape"
   width="48"
   height="48"
   viewBox="0 0 12.7 12.7"
   version="1.1"
   id="svg7025"
   inkscape:version="0.92.1 r15371"
   sodipodi:docname="database.svg"
   inkscape:export-filename="/home/scwook/git/Drawing.Image/icons/export/4.7inch/database_black_fill_64x64.png"
   inkscape:export-xdpi="90"
   inkscape:export-ydpi="90">
  <defs
     id="defs7019" />
  <sodipodi:namedview
     id="base"
     pagecolor="#c8c8c8"
     bordercolor="#666666"
     borderopacity="1.0"
     inkscape:pageopacity="0"
     inkscape:pageshadow="2"
     inkscape:zoom="0.5"
     inkscape:cx="64.942764"
     inkscape:cy="297.6775"
     inkscape:document-units="px"
     inkscape:current-layer="layer3"
     showgrid="false"
     units="px"
     inkscape:showpageshadow="false"
     showguides="true"
     inkscape:window-width="1920"
     inkscape:window-height="1020"
     inkscape:window-x="0"
     inkscape:window-y="31"
     inkscape:window-maximized="1">
    <inkscape:grid
       type="xygrid"
       id="grid7570" />
  </sodipodi:namedview>
  <metadata
     id="metadata7022">
    <rdf:RDF>
      <cc:Work
         rdf:about="">
        <dc:format>image/svg+xml</dc:format>
        <dc:type
           rdf:resource="http://purl.org/dc/dcmitype/StillImage" />
        <dc:title></dc:title>
      </cc:Work>
    </rdf:RDF>
  </metadata>
  <g
     inkscape:label="fill"
     inkscape:groupmode="layer"
     id="layer1"
     transform="translate(0,-284.30001)"
     style="display:inline">
    <g
       id="g4650"
       transform="matrix(2.9736176,0,0,2.9736176,0.05582373,-586.27261)">
      <ellipse
         ry="0.49682385"
         rx="1.4904717"
         cy="293.39578"
         cx="2.1166623"
         id="path7656"
         style="opacity:1;vector-effect:none;fill:#000000;fill-opacity:1;stroke:none;stroke-width:0.26552328;stroke-linecap:butt;stroke-linejoin:round;stroke-miterlimit:4;stroke-dasharray:none;stroke-dashoffset:0;stroke-opacity:0.39215686;paint-order:fill markers stroke" />
      <path
         inkscape:connector-curvature="0"
         id="path7656-2"
         d="m 3.6080485,293.68852 a 1.494353,0.49682383 0 0 1 -1.4913819,0.47542 1.494353,0.49682383 0 0 1 -1.48983149,-0.45888 v 0.23357 0.7121 a 1.4912478,0.49682383 0 0 0 -0.00155,0.0103 1.4912478,0.49682383 0 0 0 0.00155,0.01 v 0.21342 a 1.4912478,0.49682383 0 0 0 -0.00155,0.0103 1.4912478,0.49682383 0 0 0 1.49138179,0.49712 1.4912478,0.49682383 0 0 0 1.4908652,-0.49557 h 5.167e-4 v -0.002 -0.23203 -0.002 -0.73845 z"
         style="opacity:1;vector-effect:none;fill:#000000;fill-opacity:1;stroke:none;stroke-width:0.26559243;stroke-linecap:butt;stroke-linejoin:round;stroke-miterlimit:4;stroke-dasharray:none;stroke-dashoffset:0;stroke-opacity:0.39215686;paint-order:fill markers stroke" />
      <path
         id="path7656-2-6"
         d="m 3.6080485,295.19965 a 1.494353,0.49682384 0 0 1 -1.4913819,0.47542 1.494353,0.49682384 0 0 1 -1.48983149,-0.45888 v 0.23357 0.71211 a 1.4912478,0.49682384 0 0 0 -0.00155,0.0103 1.4912478,0.49682384 0 0 0 0.00155,0.01 v 0.21342 a 1.4912478,0.49682384 0 0 0 -0.00155,0.0102 1.4912478,0.49682384 0 0 0 1.49138179,0.49713 1.4912478,0.49682384 0 0 0 1.4908652,-0.49558 h 5.292e-4 v -0.002 -0.23203 -0.002 -0.73845 z"
         style="display:inline;opacity:1;vector-effect:none;fill:#000000;fill-opacity:1;stroke:none;stroke-width:0.26559243;stroke-linecap:butt;stroke-linejoin:round;stroke-miterlimit:4;stroke-dasharray:none;stroke-dashoffset:0;stroke-opacity:0.39215686;paint-order:fill markers stroke"
         inkscape:connector-curvature="0" />
    </g>
  </g>
  <g
     inkscape:groupmode="layer"
     id="layer3"
     inkscape:label="fill 2"
     style="display:none">
    <ellipse
       style="opacity:1;vector-effect:none;fill:#000000;fill-opacity:1;stroke:none;stroke-width:0.78956473;stroke-linecap:butt;stroke-linejoin:round;stroke-miterlimit:4;stroke-dasharray:none;stroke-dashoffset:0;stroke-opacity:0.39215686;paint-order:fill markers stroke"
       id="path7656-9"
       cx="6.349968"
       cy="1.8742418"
       rx="4.4320931"
       ry="1.4773642" />
    <path
       style="opacity:1;vector-effect:none;fill:#000000;fill-opacity:1;stroke:none;stroke-width:0.78977036;stroke-linecap:butt;stroke-linejoin:round;stroke-miterlimit:4;stroke-dasharray:none;stroke-dashoffset:0;stroke-opacity:0.39215686;paint-order:fill markers stroke"
       d="M 10.783321,2.4003704 A 4.434401,1.4773641 0 0 1 6.3499999,3.8741821 4.434401,1.4773641 0 0 1 1.9197794,2.427242 v 1.8887736 a 4.4344007,1.4773641 0 0 0 -0.00465,0.030489 4.4344007,1.4773641 0 0 0 0.00465,0.029973 V 5.011064 a 4.4344007,1.4773641 0 0 0 -0.00465,0.030489 4.4344007,1.4773641 0 0 0 4.4348714,1.4784625 4.4344007,1.4773641 0 0 0 4.4333212,-1.4738117 h 0.0015 v -0.00568 -0.6898804 -0.0062 -1.9440673 z"
       id="path7656-2-1"
       inkscape:connector-curvature="0" />
    <path
       style="opacity:1;vector-effect:none;fill:#000000;fill-opacity:1;stroke:none;stroke-width:0.78977036;stroke-linecap:butt;stroke-linejoin:round;stroke-miterlimit:4;stroke-dasharray:none;stroke-dashoffset:0;stroke-opacity:0.39215686;paint-order:fill markers stroke"
       d="M 10.783321,5.5422978 A 4.4344011,1.4773641 0 0 1 6.35,7.0161095 4.4344011,1.4773641 0 0 1 1.9197794,5.5691694 V 7.457943 a 4.4344008,1.4773641 0 0 0 -0.00465,0.030489 4.4344008,1.4773641 0 0 0 0.00465,0.029973 v 0.6345864 a 4.4344008,1.4773641 0 0 0 -0.00465,0.030489 4.4344008,1.4773641 0 0 0 4.4348713,1.4784627 4.4344008,1.4773641 0 0 0 4.4333213,-1.473812 h 0.0015 v -0.00568 -0.6898804 -0.0062 -1.9440673 z"
       id="path7656-2-1-0"
       inkscape:connector-curvature="0" />
    <path
       style="opacity:1;vector-effect:none;fill:#000000;fill-opacity:1;stroke:none;stroke-width:0.78977036;stroke-linecap:butt;stroke-linejoin:round;stroke-miterlimit:4;stroke-dasharray:none;stroke-dashoffset:0;stroke-opacity:0.39215686;paint-order:fill markers stroke"
       d="M 10.783321,8.6842251 A 4.4344011,1.4773641 0 0 1 6.35,10.158037 4.4344011,1.4773641 0 0 1 1.9197794,8.7110967 v 1.8887743 a 4.4344008,1.4773641 0 0 0 -0.00465,0.03049 4.4344008,1.4773641 0 0 0 0.00465,0.02997 v 0.634586 a 4.4344008,1.4773641 0 0 0 -0.00465,0.03049 4.4344008,1.4773641 0 0 0 4.4348713,1.478464 4.4344008,1.4773641 0 0 0 4.4333213,-1.473813 h 0.0015 v -0.0057 -0.689881 -0.0062 -1.9440673 z"
       id="path7656-2-1-0-9"
       inkscape:connector-curvature="0" />
  </g>
  <g
     inkscape:groupmode="layer"
     id="layer2"
     inkscape:label="stroke"
     style="display:none"
     transform="translate(0,8.4666666)">
    <g
       id="g8083"
       transform="matrix(3,0,0,3,0.01925509,-8.4916852)">
      <path
         id="path7656-28"
         d="M 3.5014011,0.73660435 A 1.3911527,0.46371752 0 0 1 2.1102483,1.200322 1.3911527,0.46371752 0 0 1 0.71909561,0.73660435 1.3911527,0.46371752 0 0 1 2.1102483,0.27288682 1.3911527,0.46371752 0 0 1 3.5014011,0.73660435 Z"
         style="opacity:1;vector-effect:none;fill:none;fill-opacity:1;stroke:#000000;stroke-width:0.26451394;stroke-linecap:butt;stroke-linejoin:round;stroke-miterlimit:4;stroke-dasharray:none;stroke-dashoffset:0;stroke-opacity:1;paint-order:fill markers stroke"
         inkscape:connector-curvature="0" />
      <path
         sodipodi:nodetypes="cccccccc"
         inkscape:connector-curvature="0"
         id="path7656-2-97"
         d="M 0.71982011,0.71015158 V 2.1165297 c -5.8749e-4,0.00328 -0.001071,0.00656 -0.001449,0.00984 -6.99e-6,0.2561058 0.62315969,0.4637217 1.39187719,0.4637217 0.7668746,-6.53e-5 1.3891169,-0.206777 1.3915149,-0.4622676 h 3.623e-4 v -0.00177 l -5e-7,-1.42056024"
         style="opacity:1;vector-effect:none;fill:none;fill-opacity:1;stroke:#000000;stroke-width:0.26451394;stroke-linecap:butt;stroke-linejoin:round;stroke-miterlimit:4;stroke-dasharray:none;stroke-dashoffset:0;stroke-opacity:1;paint-order:fill markers stroke" />
      <path
         sodipodi:nodetypes="cccccccc"
         inkscape:connector-curvature="0"
         id="path7656-2-9-3"
         d="m 0.71982012,2.151753 v 1.3518095 c -5.8749e-4,0.00328 -0.001071,0.00656 -0.001449,0.00984 -7.26e-6,0.2561069 0.62315938,0.463723 1.39187688,0.463723 0.7668745,-6.54e-5 1.3891166,-0.206777 1.3915148,-0.4622675 h 3.519e-4 v -0.00177 l 9.9e-6,-1.3605346"
         style="display:inline;opacity:1;vector-effect:none;fill:none;fill-opacity:1;stroke:#000000;stroke-width:0.26451394;stroke-linecap:butt;stroke-linejoin:round;stroke-miterlimit:4;stroke-dasharray:none;stroke-dashoffset:0;stroke-opacity:1;paint-order:fill markers stroke" />
    </g>
  </g>
</svg>
