<?xml version="1.0" encoding="UTF-8" standalone="no"?>
<!-- Created with Inkscape (http://www.inkscape.org/) -->

<svg
   xmlns:dc="http://purl.org/dc/elements/1.1/"
   xmlns:cc="http://creativecommons.org/ns#"
   xmlns:rdf="http://www.w3.org/1999/02/22-rdf-syntax-ns#"
   xmlns:svg="http://www.w3.org/2000/svg"
   xmlns="http://www.w3.org/2000/svg"
   xmlns:sodipodi="http://sodipodi.sourceforge.net/DTD/sodipodi-0.dtd"
   xmlns:inkscape="http://www.inkscape.org/namespaces/inkscape"
   width="240"
   height="240"
   id="svg2"
   version="1.1"
   inkscape:version="0.48.5 r10040"
   sodipodi:docname="main.svg">
  <defs
     id="defs4">
    <inkscape:perspective
       sodipodi:type="inkscape:persp3d"
       inkscape:vp_x="0 : 120 : 1"
       inkscape:vp_y="0 : 1000 : 0"
       inkscape:vp_z="240 : 120 : 1"
       inkscape:persp3d-origin="120 : 80 : 1"
       id="perspective3006" />
  </defs>
  <sodipodi:namedview
     id="base"
     pagecolor="#646464"
     bordercolor="#666666"
     borderopacity="1.0"
     inkscape:pageopacity="0.39215686"
     inkscape:pageshadow="2"
     inkscape:zoom="0.4017409"
     inkscape:cx="-11.755322"
     inkscape:cy="756.45502"
     inkscape:document-units="px"
     inkscape:current-layer="layer1"
     showgrid="true"
     inkscape:window-width="1920"
     inkscape:window-height="1178"
     inkscape:window-x="1920"
     inkscape:window-y="0"
     inkscape:window-maximized="1"
     showguides="true"
     inkscape:guide-bbox="true">
    <inkscape:grid
       type="xygrid"
       id="grid3796"
       empspacing="5"
       visible="true"
       enabled="true"
       snapvisiblegridlinesonly="true" />
  </sodipodi:namedview>
  <metadata
     id="metadata7">
    <rdf:RDF>
      <cc:Work
         rdf:about="">
        <dc:format>image/svg+xml</dc:format>
        <dc:type
           rdf:resource="http://purl.org/dc/dcmitype/StillImage" />
        <dc:title />
      </cc:Work>
    </rdf:RDF>
  </metadata>
  <g
     inkscape:label="Layer 1"
     inkscape:groupmode="layer"
     id="layer1"
     transform="translate(0,-812.36218)">
    <path
       style="fill:none;stroke:#000000;stroke-width:8.20128918;stroke-linecap:square;stroke-linejoin:miter;stroke-miterlimit:4;stroke-opacity:1;stroke-dasharray:none"
       d="m -463.7647,923.83277 -330,0"
       id="path3969"
       inkscape:connector-curvature="0" />
    <path
       style="fill:none;stroke:#000000;stroke-width:5;stroke-linecap:square;stroke-linejoin:miter;stroke-miterlimit:4;stroke-opacity:1;stroke-dasharray:none"
       d="m -773.7647,925.83277 0,20"
       id="path3971-2"
       inkscape:connector-curvature="0" />
    <path
       style="fill:none;stroke:#000000;stroke-width:5;stroke-linecap:square;stroke-linejoin:miter;stroke-miterlimit:4;stroke-opacity:1;stroke-dasharray:none"
       d="m -632.35293,711.47985 0,20"
       id="path3971"
       inkscape:connector-curvature="0" />
    <path
       style="fill:#f9f9f9;stroke-width:0;stroke-linecap:round;stroke-linejoin:round;stroke-miterlimit:4;stroke-dasharray:none;display:inline"
       d="m -760,1040.2634 c -3.96366,0 -7.14378,2.7903 -7.14378,6.256 l 0,59.5868 c 0,3.4657 3.18012,6.256 7.14378,6.256 l 25.68665,0 c 3.96366,0 7.16957,-2.7903 7.16957,-6.256 l 0,-59.5868 c 0,-3.4657 -3.20591,-6.256 -7.16957,-6.256 l -25.68665,0 z m 4.51321,3.3865 c 0.49171,0 0.90265,0.3861 0.90265,0.8789 0,0.4929 -0.41094,0.9048 -0.90265,0.9048 -0.4917,0 -0.87685,-0.4119 -0.87685,-0.9048 0,-0.4928 0.38515,-0.8789 0.87685,-0.8789 z m 2.52741,0.3102 12.06963,0 0,1.0599 -12.06963,0 0,-1.0599 z m -9.6196,4.4205 30.94777,0 0,53.9255 -30.94777,0 0,-53.9255 z m 15.47388,55.5282 c 1.58222,0 2.86267,1.2835 2.86267,2.8695 0,1.586 -1.28045,2.8695 -2.86267,2.8695 -1.58221,0 -2.86267,-1.2836 -2.86267,-2.8695 0,-1.586 1.28046,-2.8695 2.86267,-2.8695 z"
       id="rect3776"
       inkscape:connector-curvature="0" />
    <path
       style="fill:none;stroke:#000000;stroke-width:1.77450764;stroke-linecap:butt;stroke-linejoin:miter;stroke-miterlimit:4;stroke-opacity:1;stroke-dasharray:none"
       d="m -266,915.10028 c 0,0 9.2,-32.8579 18.4,-10.9526 9.2,21.9052 18.4,27.38152 27.6,8.2145"
       id="path3844"
       inkscape:connector-curvature="0"
       sodipodi:nodetypes="csc" />
    <rect
       style="fill:#000000;fill-opacity:1;stroke:#000000;stroke-width:1.22333145;stroke-linejoin:round;stroke-miterlimit:4;stroke-opacity:1;stroke-dasharray:none"
       id="rect3846"
       width="40.705887"
       height="29.411762"
       x="-276.23526"
       y="977.36218" />
    <rect
       style="fill:#ffffff;fill-opacity:1;stroke:#000000;stroke-width:1.09418094;stroke-linejoin:round;stroke-miterlimit:4;stroke-opacity:1;stroke-dasharray:none"
       id="rect3846-9"
       width="40.705887"
       height="23.529413"
       x="-276.23526"
       y="977.36218" />
    <path
       sodipodi:type="arc"
       style="fill:#ffffff;fill-opacity:1;stroke:none"
       id="path3870"
       sodipodi:cx="330"
       sodipodi:cy="182.36218"
       sodipodi:rx="5"
       sodipodi:ry="5"
       d="m 335,182.36218 a 5,5 0 1 1 -10,0 5,5 0 1 1 10,0 z"
       transform="matrix(0.29411765,0,0,0.29411765,-358.82352,950.19683)" />
    <path
       sodipodi:type="arc"
       style="fill:#ffffff;fill-opacity:1;stroke:none"
       id="path3870-5"
       sodipodi:cx="330"
       sodipodi:cy="182.36218"
       sodipodi:rx="5"
       sodipodi:ry="5"
       d="m 335,182.36218 a 5,5 0 1 1 -10,0 5,5 0 1 1 10,0 z"
       transform="matrix(0.29411765,0,0,0.29411765,-352.94117,950.19683)" />
    <path
       sodipodi:type="arc"
       style="fill:#ffffff;fill-opacity:1;stroke:none"
       id="path3870-5-8"
       sodipodi:cx="330"
       sodipodi:cy="182.36218"
       sodipodi:rx="5"
       sodipodi:ry="5"
       d="m 335,182.36218 a 5,5 0 1 1 -10,0 5,5 0 1 1 10,0 z"
       transform="matrix(0.29411765,0,0,0.29411765,-347.05882,950.19683)" />
    <path
       style="fill:none;stroke:#000000;stroke-width:1.47058833;stroke-linecap:butt;stroke-linejoin:miter;stroke-miterlimit:4;stroke-opacity:1;stroke-dasharray:none"
       d="m -270.58824,992.06805 5.88234,0 0,-5.8823 5.88236,0 0,5.8823 5.88234,0 0,-5.8823 5.88237,0 0,5.8823 5.88236,0"
       id="path3842"
       inkscape:connector-curvature="0" />
    <rect
       style="fill:#ffffff;fill-opacity:1;stroke:#000000;stroke-width:0.34946379;stroke-linejoin:round;stroke-miterlimit:4;stroke-opacity:1;stroke-dasharray:none"
       id="rect3937"
       width="23.529411"
       height="17.647055"
       x="-338.82352"
       y="725.59753"
       rx="7.6388006"
       ry="0" />
    <rect
       style="fill:#ffffff;fill-opacity:1;stroke:#000000;stroke-width:0.17473158;stroke-linejoin:round;stroke-miterlimit:4;stroke-opacity:1;stroke-dasharray:none"
       id="rect3937-2"
       width="17.647058"
       height="5.8823304"
       x="-330"
       y="731.47986"
       rx="5.7291002"
       ry="0" />
    <text
       xml:space="preserve"
       style="font-size:35.91942978px;font-style:normal;font-weight:normal;line-height:125%;letter-spacing:0px;word-spacing:0px;fill:#000000;fill-opacity:1;stroke:none;font-family:Sans"
       x="-220"
       y="712.36218"
       id="text3961"
       sodipodi:linespacing="125%"><tspan
         sodipodi:role="line"
         id="tspan3963"
         x="-220"
         y="712.36218">EPICS</tspan></text>
    <path
       inkscape:connector-curvature="0"
       id="rect3022"
       d="m -527.14378,1086.1062 5,0 0,5 -5,0 z"
       style="fill:#0000ff;fill-opacity:1;fill-rule:nonzero;stroke:none" />
    <path
       inkscape:connector-curvature="0"
       id="rect3022-1"
       d="m -519.64378,1086.1062 5,0 0,5 -5,0 z"
       style="fill:#ffff00;fill-opacity:1;fill-rule:nonzero;stroke:none" />
    <path
       inkscape:connector-curvature="0"
       id="rect3022-2"
       d="m -514.64378,1101.1062 5,0 0,5 -5,0 z"
       style="fill:#00ff00;fill-opacity:1;fill-rule:nonzero;stroke:none" />
    <path
       inkscape:connector-curvature="0"
       id="rect3022-1-2"
       d="m -507.14378,1101.1062 5,0 0,5 -5,0 z"
       style="fill:#ff0000;fill-opacity:1;fill-rule:nonzero;stroke:none" />
    <path
       style="fill:none;stroke:#000000;stroke-width:1.42302454;stroke-linecap:butt;stroke-linejoin:miter;stroke-miterlimit:4;stroke-opacity:1;stroke-dasharray:none"
       d="m -528.14378,1096.1062 27,0"
       id="path3063"
       inkscape:connector-curvature="0" />
    <path
       style="fill:none;stroke:#000000;stroke-width:0.99999976;stroke-linecap:butt;stroke-linejoin:miter;stroke-miterlimit:4;stroke-opacity:1;stroke-dasharray:none"
       d="m -524.64378,1091.1062 0,5"
       id="path3065"
       inkscape:connector-curvature="0" />
    <path
       style="fill:none;stroke:#000000;stroke-width:0.99999976;stroke-linecap:butt;stroke-linejoin:miter;stroke-miterlimit:4;stroke-opacity:1;stroke-dasharray:none"
       d="m -517.14378,1091.1062 0,5"
       id="path3067"
       inkscape:connector-curvature="0" />
    <path
       style="fill:none;stroke:#000000;stroke-width:0.99999976;stroke-linecap:butt;stroke-linejoin:miter;stroke-miterlimit:4;stroke-opacity:1;stroke-dasharray:none"
       d="m -512.14378,1101.1062 0,-5"
       id="path3069"
       inkscape:connector-curvature="0" />
    <path
       style="fill:none;stroke:#000000;stroke-width:0.99999976;stroke-linecap:butt;stroke-linejoin:miter;stroke-miterlimit:4;stroke-opacity:1;stroke-dasharray:none"
       d="m -504.64378,1101.1062 0,-5"
       id="path3071"
       inkscape:connector-curvature="0" />
    <path
       sodipodi:type="arc"
       style="fill:#ffffff;fill-opacity:1;stroke:none"
       id="path3874"
       sodipodi:cx="22.5"
       sodipodi:cy="52.5"
       sodipodi:rx="2.5"
       sodipodi:ry="2.5"
       d="m 25,52.5 a 2.5,2.5 0 1 1 -5,0 2.5,2.5 0 1 1 5,0 z"
       transform="matrix(4,0,0,4,-837.14378,816.10622)" />
  </g>
</svg>
