<?xml version="1.0" encoding="UTF-8" standalone="no"?>
<!-- Created with Inkscape (http://www.inkscape.org/) -->

<svg
   xmlns:osb="http://www.openswatchbook.org/uri/2009/osb"
   xmlns:dc="http://purl.org/dc/elements/1.1/"
   xmlns:cc="http://creativecommons.org/ns#"
   xmlns:rdf="http://www.w3.org/1999/02/22-rdf-syntax-ns#"
   xmlns:svg="http://www.w3.org/2000/svg"
   xmlns="http://www.w3.org/2000/svg"
   xmlns:sodipodi="http://sodipodi.sourceforge.net/DTD/sodipodi-0.dtd"
   xmlns:inkscape="http://www.inkscape.org/namespaces/inkscape"
   width="375"
   height="64"
   id="svg2"
   version="1.1"
   inkscape:version="0.48.5 r10040"
   sodipodi:docname="main.svg"
   inkscape:export-filename="/home/scwook/Pictures/iEPICS/footer1_1119x192.png"
   inkscape:export-xdpi="90"
   inkscape:export-ydpi="90">
  <defs
     id="defs4">
    <linearGradient
       id="linearGradient3797"
       osb:paint="solid">
      <stop
         style="stop-color:#000000;stop-opacity:1;"
         offset="0"
         id="stop3799" />
    </linearGradient>
    <inkscape:perspective
       sodipodi:type="inkscape:persp3d"
       inkscape:vp_x="0 : 120 : 1"
       inkscape:vp_y="0 : 1000 : 0"
       inkscape:vp_z="240 : 120 : 1"
       inkscape:persp3d-origin="120 : 80 : 1"
       id="perspective3006" />
  </defs>
  <sodipodi:namedview
     id="base"
     pagecolor="#646464"
     bordercolor="#666666"
     borderopacity="1.0"
     inkscape:pageopacity="0"
     inkscape:pageshadow="2"
     inkscape:zoom="1.6069636"
     inkscape:cx="203.086"
     inkscape:cy="34.316675"
     inkscape:document-units="px"
     inkscape:current-layer="svg2"
     showgrid="true"
     inkscape:window-width="1920"
     inkscape:window-height="1178"
     inkscape:window-x="1920"
     inkscape:window-y="0"
     inkscape:window-maximized="1"
     showguides="true"
     inkscape:guide-bbox="true">
    <inkscape:grid
       type="xygrid"
       id="grid3796"
       empspacing="5"
       visible="true"
       enabled="true"
       snapvisiblegridlinesonly="true" />
  </sodipodi:namedview>
  <metadata
     id="metadata7">
    <rdf:RDF>
      <cc:Work
         rdf:about="">
        <dc:format>image/svg+xml</dc:format>
        <dc:type
           rdf:resource="http://purl.org/dc/dcmitype/StillImage" />
        <dc:title></dc:title>
      </cc:Work>
    </rdf:RDF>
  </metadata>
  <g
     inkscape:label="Layer 1"
     inkscape:groupmode="layer"
     id="layer1"
     transform="translate(0,-988.36218)"
     style="display:inline">
    <g
       id="g5319"
       transform="matrix(0.99035784,0,0,0.98233588,-4.6020557,18.317889)"
       style="fill:#ffffff;stroke-width:1.50391424;stroke-miterlimit:4;stroke-dasharray:none"
       inkscape:export-filename="/home/scwook/Pictures/iEPICS/footer1_375x64.png"
       inkscape:export-xdpi="90"
       inkscape:export-ydpi="90">
      <path
         inkscape:connector-curvature="0"
         id="rect3776"
         d="m 137.63711,1000.0819 c -1.44477,0 -2.60393,1.017 -2.60393,2.2803 l 0,21.7196 c 0,1.2633 1.15916,2.2804 2.60393,2.2804 l 9.36289,0 c 1.44476,0 2.61333,-1.0171 2.61333,-2.2804 l 0,-21.7196 c 0,-1.2633 -1.16857,-2.2803 -2.61333,-2.2803 l -9.36289,0 z m 1.64509,1.2343 c 0.17923,0 0.32901,0.1408 0.32901,0.3204 0,0.1797 -0.14978,0.3298 -0.32901,0.3298 -0.17924,0 -0.31962,-0.1501 -0.31962,-0.3298 0,-0.1796 0.14038,-0.3204 0.31962,-0.3204 z m 0.92125,0.1131 4.39943,0 0,0.3863 -4.39943,0 0,-0.3863 z m -3.50638,1.6113 11.28059,0 0,19.6561 -11.28059,0 0,-19.6561 z m 5.64028,20.2402 c 0.57672,0 1.04346,0.4679 1.04346,1.046 0,0.5782 -0.46674,1.0459 -1.04346,1.0459 -0.57671,0 -1.04345,-0.4678 -1.04345,-1.0459 0,-0.5781 0.46674,-1.046 1.04345,-1.046 z"
         style="fill:#ffffff;fill-opacity:1;stroke:none;display:inline" />
      <text
         sodipodi:linespacing="125%"
         id="text3961"
         y="1026.3622"
         x="152"
         style="font-size:35.91942978px;font-style:normal;font-weight:normal;line-height:125%;letter-spacing:0px;word-spacing:0px;fill:#ffffff;fill-opacity:1;fill-rule:nonzero;stroke:none;font-family:Sans"
         xml:space="preserve"><tspan
           style="fill:#ffffff;fill-opacity:1;stroke:none"
           y="1026.3622"
           x="152"
           id="tspan3963"
           sodipodi:role="line">EPICS</tspan></text>
    </g>
    <path
       style="fill:#ffffff;stroke:#ffffff;stroke-width:1.97782493;stroke-linecap:butt;stroke-linejoin:miter;stroke-miterlimit:4;stroke-opacity:1;stroke-dasharray:none"
       d="m 1.9889125,1032.4778 371.0221675,0"
       id="path5247"
       inkscape:connector-curvature="0"
       inkscape:export-filename="/home/scwook/Pictures/iEPICS/footer1_375x64.png"
       inkscape:export-xdpi="90"
       inkscape:export-ydpi="90" />
    <path
       style="fill:#ffffff;stroke:#ffffff;stroke-width:1.48336887;stroke-linecap:butt;stroke-linejoin:miter;stroke-miterlimit:4;stroke-opacity:1;stroke-dasharray:none"
       d="m 136.38304,1026.4927 0,5.9308"
       id="path5249"
       inkscape:connector-curvature="0"
       inkscape:export-filename="/home/scwook/Pictures/iEPICS/footer1_375x64.png"
       inkscape:export-xdpi="90"
       inkscape:export-ydpi="90" />
    <path
       style="fill:none;stroke:#ffffff;stroke-width:0.98891246;stroke-linecap:butt;stroke-linejoin:miter;stroke-miterlimit:4;stroke-opacity:1;stroke-dasharray:none"
       d="m 11.882838,1027.5357 0,3.9536"
       id="path5249-2"
       inkscape:connector-curvature="0"
       inkscape:export-filename="/home/scwook/Pictures/iEPICS/footer1_375x64.png"
       inkscape:export-xdpi="90"
       inkscape:export-ydpi="90" />
    <rect
       style="color:#000000;fill:#0000ff;fill-opacity:1;fill-rule:nonzero;stroke:none;stroke-width:1.5;marker:none;visibility:visible;display:inline;overflow:visible;enable-background:accumulate"
       id="rect5269"
       width="5.9363589"
       height="5.9306026"
       x="8.9146576"
       y="1021.605"
       inkscape:export-filename="/home/scwook/Pictures/iEPICS/footer1_375x64.png"
       inkscape:export-xdpi="90"
       inkscape:export-ydpi="90" />
    <path
       style="fill:none;stroke:#ffffff;stroke-width:0.98891246;stroke-linecap:butt;stroke-linejoin:miter;stroke-miterlimit:4;stroke-opacity:1;stroke-dasharray:none"
       d="m 21.776758,1027.5357 0,3.9536"
       id="path5249-2-9"
       inkscape:connector-curvature="0"
       inkscape:export-filename="/home/scwook/Pictures/iEPICS/footer1_375x64.png"
       inkscape:export-xdpi="90"
       inkscape:export-ydpi="90" />
    <rect
       style="color:#000000;fill:#ffff00;fill-opacity:1;fill-rule:nonzero;stroke:none;stroke-width:1.5;marker:none;visibility:visible;display:inline;overflow:visible;enable-background:accumulate"
       id="rect5269-5"
       width="5.9363589"
       height="5.9306026"
       x="18.808584"
       y="1021.605"
       inkscape:export-filename="/home/scwook/Pictures/iEPICS/footer1_375x64.png"
       inkscape:export-xdpi="90"
       inkscape:export-ydpi="90" />
    <path
       style="fill:none;stroke:#ffffff;stroke-width:0.98891246;stroke-linecap:butt;stroke-linejoin:miter;stroke-miterlimit:4;stroke-opacity:1;stroke-dasharray:none"
       d="m 363.11717,1036.4315 0,-3.9537"
       id="path5249-2-4"
       inkscape:connector-curvature="0"
       inkscape:export-filename="/home/scwook/Pictures/iEPICS/footer1_375x64.png"
       inkscape:export-xdpi="90"
       inkscape:export-ydpi="90" />
    <rect
       style="color:#000000;fill:#ff0000;fill-opacity:1;fill-rule:nonzero;stroke:none;stroke-width:1.5;marker:none;visibility:visible;display:inline;overflow:visible;enable-background:accumulate"
       id="rect5269-8"
       width="5.9363589"
       height="5.9306026"
       x="-366.0853"
       y="-1042.3622"
       transform="scale(-1,-1)"
       inkscape:export-filename="/home/scwook/Pictures/iEPICS/footer1_375x64.png"
       inkscape:export-xdpi="90"
       inkscape:export-ydpi="90" />
    <path
       style="fill:none;stroke:#ffffff;stroke-width:0.98891246;stroke-linecap:butt;stroke-linejoin:miter;stroke-miterlimit:4;stroke-opacity:1;stroke-dasharray:none"
       d="m 353.22321,1036.4315 0,-3.9537"
       id="path5249-2-9-3"
       inkscape:connector-curvature="0"
       inkscape:export-filename="/home/scwook/Pictures/iEPICS/footer1_375x64.png"
       inkscape:export-xdpi="90"
       inkscape:export-ydpi="90" />
    <rect
       style="color:#000000;fill:#00ff00;fill-opacity:1;fill-rule:nonzero;stroke:none;stroke-width:1.5;marker:none;visibility:visible;display:inline;overflow:visible;enable-background:accumulate"
       id="rect5269-5-5"
       width="5.9363589"
       height="5.9306026"
       x="-356.19141"
       y="-1042.3622"
       transform="scale(-1,-1)"
       inkscape:export-filename="/home/scwook/Pictures/iEPICS/footer1_375x64.png"
       inkscape:export-xdpi="90"
       inkscape:export-ydpi="90" />
  </g>
  <g
     inkscape:groupmode="layer"
     id="layer2"
     inkscape:label="Layer2"
     style="display:none"
     transform="translate(0,-128)">
    <path
       style="fill:none;stroke:#000000;stroke-width:8.20128918;stroke-linecap:square;stroke-linejoin:miter;stroke-miterlimit:4;stroke-opacity:1;stroke-dasharray:none"
       d="m 552.47053,74.941171 -330,0"
       id="path3969"
       inkscape:connector-curvature="0" />
    <path
       style="fill:none;stroke:#000000;stroke-width:5;stroke-linecap:square;stroke-linejoin:miter;stroke-miterlimit:4;stroke-opacity:1;stroke-dasharray:none"
       d="m 242.47053,76.941171 0,20"
       id="path3971-2"
       inkscape:connector-curvature="0" />
    <path
       style="fill:none;stroke:#000000;stroke-width:5;stroke-linecap:square;stroke-linejoin:miter;stroke-miterlimit:4;stroke-opacity:1;stroke-dasharray:none"
       d="m 383.88233,-137.41175 0,20"
       id="path3971"
       inkscape:connector-curvature="0" />
    <path
       style="fill:none;stroke:#000000;stroke-width:1.77450764;stroke-linecap:butt;stroke-linejoin:miter;stroke-miterlimit:4;stroke-opacity:1;stroke-dasharray:none"
       d="m 750.23523,66.208681 c 0,0 9.2,-32.8579 18.4,-10.9526 9.2,21.9052 18.4,27.38152 27.6,8.2145"
       id="path3844"
       inkscape:connector-curvature="0"
       sodipodi:nodetypes="csc" />
    <rect
       style="fill:#000000;fill-opacity:1;stroke:#000000;stroke-width:1.22333145;stroke-linejoin:round;stroke-miterlimit:4;stroke-opacity:1;stroke-dasharray:none"
       id="rect3846"
       width="40.705887"
       height="29.411762"
       x="740"
       y="128.47058" />
    <rect
       style="fill:#ffffff;fill-opacity:1;stroke:#000000;stroke-width:1.09418094;stroke-linejoin:round;stroke-miterlimit:4;stroke-opacity:1;stroke-dasharray:none"
       id="rect3846-9"
       width="40.705887"
       height="23.529413"
       x="740"
       y="128.47058" />
    <path
       sodipodi:type="arc"
       style="fill:#ffffff;fill-opacity:1;stroke:none"
       id="path3870"
       sodipodi:cx="330"
       sodipodi:cy="182.36218"
       sodipodi:rx="5"
       sodipodi:ry="5"
       d="m 335,182.36218 c 0,2.76143 -2.23858,5 -5,5 -2.76142,0 -5,-2.23857 -5,-5 0,-2.76142 2.23858,-5 5,-5 2.76142,0 5,2.23858 5,5 z"
       transform="matrix(0.29411765,0,0,0.29411765,657.41173,101.30523)" />
    <path
       sodipodi:type="arc"
       style="fill:#ffffff;fill-opacity:1;stroke:none"
       id="path3870-5"
       sodipodi:cx="330"
       sodipodi:cy="182.36218"
       sodipodi:rx="5"
       sodipodi:ry="5"
       d="m 335,182.36218 c 0,2.76143 -2.23858,5 -5,5 -2.76142,0 -5,-2.23857 -5,-5 0,-2.76142 2.23858,-5 5,-5 2.76142,0 5,2.23858 5,5 z"
       transform="matrix(0.29411765,0,0,0.29411765,663.29403,101.30523)" />
    <path
       sodipodi:type="arc"
       style="fill:#ffffff;fill-opacity:1;stroke:none"
       id="path3870-5-8"
       sodipodi:cx="330"
       sodipodi:cy="182.36218"
       sodipodi:rx="5"
       sodipodi:ry="5"
       d="m 335,182.36218 c 0,2.76143 -2.23858,5 -5,5 -2.76142,0 -5,-2.23857 -5,-5 0,-2.76142 2.23858,-5 5,-5 2.76142,0 5,2.23858 5,5 z"
       transform="matrix(0.29411765,0,0,0.29411765,669.17643,101.30523)" />
    <path
       style="fill:none;stroke:#000000;stroke-width:1.47058833;stroke-linecap:butt;stroke-linejoin:miter;stroke-miterlimit:4;stroke-opacity:1;stroke-dasharray:none"
       d="m 745.64703,143.17645 5.8823,0 0,-5.8823 5.8824,0 0,5.8823 5.8823,0 0,-5.8823 5.8824,0 0,5.8823 5.8823,0"
       id="path3842"
       inkscape:connector-curvature="0" />
    <rect
       style="fill:#ffffff;fill-opacity:1;stroke:#000000;stroke-width:0.34946379;stroke-linejoin:round;stroke-miterlimit:4;stroke-opacity:1;stroke-dasharray:none"
       id="rect3937"
       width="23.529411"
       height="17.647055"
       x="677.41174"
       y="-123.29407"
       rx="7.6388006"
       ry="0" />
    <rect
       style="fill:#ffffff;fill-opacity:1;stroke:#000000;stroke-width:0.17473158;stroke-linejoin:round;stroke-miterlimit:4;stroke-opacity:1;stroke-dasharray:none"
       id="rect3937-2"
       width="17.647058"
       height="5.8823304"
       x="686.23523"
       y="-117.41174"
       rx="5.7291002"
       ry="0" />
    <path
       inkscape:connector-curvature="0"
       id="rect3022"
       d="m 489.09143,237.2146 5,0 0,5 -5,0 z"
       style="fill:#0000ff;fill-opacity:1;fill-rule:nonzero;stroke:none" />
    <path
       inkscape:connector-curvature="0"
       id="rect3022-1"
       d="m 496.59143,237.2146 5,0 0,5 -5,0 z"
       style="fill:#ffff00;fill-opacity:1;fill-rule:nonzero;stroke:none" />
    <path
       inkscape:connector-curvature="0"
       id="rect3022-2"
       d="m 501.59143,252.2146 5,0 0,5 -5,0 z"
       style="fill:#00ff00;fill-opacity:1;fill-rule:nonzero;stroke:none" />
    <path
       inkscape:connector-curvature="0"
       id="rect3022-1-2"
       d="m 509.09143,252.2146 5,0 0,5 -5,0 z"
       style="fill:#ff0000;fill-opacity:1;fill-rule:nonzero;stroke:none" />
    <path
       style="fill:none;stroke:#000000;stroke-width:1.42302454;stroke-linecap:butt;stroke-linejoin:miter;stroke-miterlimit:4;stroke-opacity:1;stroke-dasharray:none"
       d="m 488.09143,247.2146 27,0"
       id="path3063"
       inkscape:connector-curvature="0" />
    <path
       style="fill:none;stroke:#000000;stroke-width:0.99999976;stroke-linecap:butt;stroke-linejoin:miter;stroke-miterlimit:4;stroke-opacity:1;stroke-dasharray:none"
       d="m 491.59143,242.2146 0,5"
       id="path3065"
       inkscape:connector-curvature="0" />
    <path
       style="fill:none;stroke:#000000;stroke-width:0.99999976;stroke-linecap:butt;stroke-linejoin:miter;stroke-miterlimit:4;stroke-opacity:1;stroke-dasharray:none"
       d="m 499.09143,242.2146 0,5"
       id="path3067"
       inkscape:connector-curvature="0" />
    <path
       style="fill:none;stroke:#000000;stroke-width:0.99999976;stroke-linecap:butt;stroke-linejoin:miter;stroke-miterlimit:4;stroke-opacity:1;stroke-dasharray:none"
       d="m 504.09143,252.2146 0,-5"
       id="path3069"
       inkscape:connector-curvature="0" />
    <path
       style="fill:none;stroke:#000000;stroke-width:0.99999976;stroke-linecap:butt;stroke-linejoin:miter;stroke-miterlimit:4;stroke-opacity:1;stroke-dasharray:none"
       d="m 511.59143,252.2146 0,-5"
       id="path3071"
       inkscape:connector-curvature="0" />
    <path
       sodipodi:type="arc"
       style="fill:#ffffff;fill-opacity:1;stroke:none"
       id="path3874"
       sodipodi:cx="22.5"
       sodipodi:cy="52.5"
       sodipodi:rx="2.5"
       sodipodi:ry="2.5"
       d="M 25,52.5 C 25,53.880712 23.880712,55 22.5,55 21.119288,55 20,53.880712 20,52.5 20,51.119288 21.119288,50 22.5,50 c 1.380712,0 2.5,1.119288 2.5,2.5 z"
       transform="matrix(4,0,0,4,811.23523,-31.529419)" />
  </g>
</svg>
