<?xml version="1.0" encoding="UTF-8" standalone="no"?>
<!-- Created with Inkscape (http://www.inkscape.org/) -->

<svg
   xmlns:dc="http://purl.org/dc/elements/1.1/"
   xmlns:cc="http://creativecommons.org/ns#"
   xmlns:rdf="http://www.w3.org/1999/02/22-rdf-syntax-ns#"
   xmlns:svg="http://www.w3.org/2000/svg"
   xmlns="http://www.w3.org/2000/svg"
   xmlns:sodipodi="http://sodipodi.sourceforge.net/DTD/sodipodi-0.dtd"
   xmlns:inkscape="http://www.inkscape.org/namespaces/inkscape"
   width="72"
   height="72"
   id="svg3776"
   version="1.1"
   inkscape:version="0.48.5 r10040"
   sodipodi:docname="setting.svg"
   inkscape:export-filename="/home/scwook/Pictures/iEPICS/setting4_72x72.png"
   inkscape:export-xdpi="90"
   inkscape:export-ydpi="90">
  <defs
     id="defs3778" />
  <sodipodi:namedview
     id="base"
     pagecolor="#646464"
     bordercolor="#666666"
     borderopacity="1.0"
     inkscape:pageopacity="0"
     inkscape:pageshadow="2"
     inkscape:zoom="2.8284271"
     inkscape:cx="-12.094321"
     inkscape:cy="68.912129"
     inkscape:document-units="px"
     inkscape:current-layer="layer2"
     showgrid="true"
     inkscape:window-width="1920"
     inkscape:window-height="1178"
     inkscape:window-x="1920"
     inkscape:window-y="0"
     inkscape:window-maximized="1">
    <inkscape:grid
       type="xygrid"
       id="grid3784"
       empspacing="5"
       visible="true"
       enabled="true"
       snapvisiblegridlinesonly="true" />
  </sodipodi:namedview>
  <metadata
     id="metadata3781">
    <rdf:RDF>
      <cc:Work
         rdf:about="">
        <dc:format>image/svg+xml</dc:format>
        <dc:type
           rdf:resource="http://purl.org/dc/dcmitype/StillImage" />
        <dc:title></dc:title>
      </cc:Work>
    </rdf:RDF>
  </metadata>
  <g
     inkscape:label="Layer 1"
     inkscape:groupmode="layer"
     id="layer1"
     transform="translate(0,-980.36215)"
     style="display:none">
    <path
       style="fill:none;stroke:#000000;stroke-width:10;stroke-linecap:round;stroke-linejoin:miter;stroke-miterlimit:4;stroke-opacity:1;stroke-dasharray:none"
       d="m 20,25 80,0"
       id="path4296"
       inkscape:connector-curvature="0"
       transform="translate(0,932.36215)" />
    <path
       style="fill:none;stroke:#000000;stroke-width:10;stroke-linecap:round;stroke-linejoin:miter;stroke-miterlimit:4;stroke-opacity:1;stroke-dasharray:none"
       d="m 20,992.36215 80,0"
       id="path4296-6"
       inkscape:connector-curvature="0" />
    <path
       style="fill:none;stroke:#000000;stroke-width:10;stroke-linecap:round;stroke-linejoin:miter;stroke-miterlimit:4;stroke-opacity:1;stroke-dasharray:none"
       d="m 20,1027.3622 80,0"
       id="path4296-6-3"
       inkscape:connector-curvature="0" />
  </g>
  <g
     inkscape:groupmode="layer"
     id="layer2"
     inkscape:label="setting2"
     transform="translate(0,-48)">
    <path
       sodipodi:type="arc"
       style="fill:none;stroke:#ffffff;stroke-opacity:1"
       id="path3882"
       sodipodi:cx="60"
       sodipodi:cy="60"
       sodipodi:rx="50"
       sodipodi:ry="50"
       d="M 110,60 A 50,50 0 1 1 10,60 50,50 0 1 1 110,60 z"
       transform="matrix(0.6930693,0,0,0.6930741,-5.5841572,42.415312)" />
    <path
       style="fill:none;stroke:#ffffff;stroke-width:1.4851532;stroke-linecap:butt;stroke-linejoin:round;stroke-miterlimit:4;stroke-opacity:1;stroke-dasharray:none"
       d="m 33.493779,61.567644 -2.073014,6.219107 c -1.283802,0.361646 -2.48038,0.908155 -3.620045,1.54704 l -5.90965,-2.939379 -3.496284,3.496314 2.939354,5.909697 c -0.63888,1.139675 -1.185382,2.336264 -1.547027,3.620076 l -6.219056,2.073035 0,5.012413 6.219056,2.073036 c 0.361645,1.283812 0.908147,2.480401 1.547027,3.620077 l -2.939354,5.909695 3.496284,3.496325 5.90965,-2.939389 c 1.139665,0.638883 2.336243,1.1854 3.620045,1.547029 l 2.073014,6.21912 5.012377,0 2.073014,-6.21912 c 1.283804,-0.361629 2.48038,-0.908146 3.620046,-1.547029 l 5.909653,2.939389 3.49628,-3.496325 -2.939352,-5.909695 c 0.638881,-1.139676 1.185385,-2.336265 1.547026,-3.620077 l 6.219055,-2.073036 0,-5.012413 -6.219055,-2.073035 c -0.361641,-1.283812 -0.908145,-2.480401 -1.547026,-3.620076 l 2.939352,-5.909697 -3.49628,-3.496314 -5.909653,2.939379 C 43.05955,68.694906 41.862974,68.148397 40.57917,67.786751 l -2.073014,-6.219107 -5.012377,0 z"
       id="path3757"
       inkscape:connector-curvature="0" />
    <path
       sodipodi:type="arc"
       style="fill:none;stroke:#ffffff;stroke-width:1.36364067;stroke-miterlimit:4;stroke-opacity:1;stroke-dasharray:none"
       id="path3880"
       sodipodi:cx="60"
       sodipodi:cy="60"
       sodipodi:rx="10"
       sodipodi:ry="10"
       d="m 70,60 a 10,10 0 1 1 -20,0 10,10 0 1 1 20,0 z"
       transform="matrix(1.0891051,0,0,1.0891127,-29.346313,18.652978)" />
    <path
       transform="matrix(0.49504643,0,0,0.49504993,6.2972118,54.29676)"
       d="m 70,60 a 10,10 0 1 1 -20,0 10,10 0 1 1 20,0 z"
       sodipodi:ry="10"
       sodipodi:rx="10"
       sodipodi:cy="60"
       sodipodi:cx="60"
       id="path3781"
       style="fill:#ffffff;fill-opacity:1;stroke:#ffffff;stroke-width:1.36364067;stroke-miterlimit:4;stroke-opacity:1;stroke-dasharray:none"
       sodipodi:type="arc" />
  </g>
</svg>
