<?xml version="1.0" encoding="UTF-8" standalone="no"?>
<!-- Created with Inkscape (http://www.inkscape.org/) -->

<svg
   xmlns:dc="http://purl.org/dc/elements/1.1/"
   xmlns:cc="http://creativecommons.org/ns#"
   xmlns:rdf="http://www.w3.org/1999/02/22-rdf-syntax-ns#"
   xmlns:svg="http://www.w3.org/2000/svg"
   xmlns="http://www.w3.org/2000/svg"
   xmlns:sodipodi="http://sodipodi.sourceforge.net/DTD/sodipodi-0.dtd"
   xmlns:inkscape="http://www.inkscape.org/namespaces/inkscape"
   width="60"
   height="60"
   id="svg3776"
   version="1.1"
   inkscape:version="0.92.1 r15371"
   sodipodi:docname="setting.svg"
   inkscape:export-filename="/home/ctrluser/Pictures/iEPICS-icons/setting_black_60x60.png"
   inkscape:export-xdpi="96"
   inkscape:export-ydpi="96">
  <defs
     id="defs3778" />
  <sodipodi:namedview
     id="base"
     pagecolor="#646464"
     bordercolor="#000000"
     borderopacity="1"
     inkscape:pageopacity="0"
     inkscape:pageshadow="2"
     inkscape:zoom="2"
     inkscape:cx="-109.0078"
     inkscape:cy="66.924811"
     inkscape:document-units="px"
     inkscape:current-layer="layer4"
     showgrid="true"
     inkscape:window-width="1920"
     inkscape:window-height="1027"
     inkscape:window-x="0"
     inkscape:window-y="31"
     inkscape:window-maximized="1"
     inkscape:showpageshadow="false">
    <inkscape:grid
       type="xygrid"
       id="grid3784"
       empspacing="5"
       visible="true"
       enabled="true"
       snapvisiblegridlinesonly="true"
       originx="0"
       originy="0"
       spacingx="1.0666667"
       spacingy="1.0666667" />
  </sodipodi:namedview>
  <metadata
     id="metadata3781">
    <rdf:RDF>
      <cc:Work
         rdf:about="">
        <dc:format>image/svg+xml</dc:format>
        <dc:type
           rdf:resource="http://purl.org/dc/dcmitype/StillImage" />
        <dc:title></dc:title>
      </cc:Work>
    </rdf:RDF>
  </metadata>
  <g
     inkscape:label="Layer 1"
     inkscape:groupmode="layer"
     id="layer1"
     transform="translate(0,-1062.5196)"
     style="display:none">
    <path
       style="fill:none;stroke:#000000;stroke-width:10.66666698;stroke-linecap:round;stroke-linejoin:miter;stroke-miterlimit:4;stroke-dasharray:none;stroke-opacity:1"
       d="M 21.333333,1021.1863 H 106.66667"
       id="path4296"
       inkscape:connector-curvature="0" />
    <path
       style="fill:none;stroke:#000000;stroke-width:10.66666698;stroke-linecap:round;stroke-linejoin:miter;stroke-miterlimit:4;stroke-dasharray:none;stroke-opacity:1"
       d="M 21.333333,1058.5196 H 106.66667"
       id="path4296-6"
       inkscape:connector-curvature="0" />
    <path
       style="fill:none;stroke:#000000;stroke-width:10.66666698;stroke-linecap:round;stroke-linejoin:miter;stroke-miterlimit:4;stroke-dasharray:none;stroke-opacity:1"
       d="M 21.333333,1095.853 H 106.66667"
       id="path4296-6-3"
       inkscape:connector-curvature="0" />
  </g>
  <g
     inkscape:groupmode="layer"
     id="layer2"
     inkscape:label="white"
     transform="translate(0,-68.000003)"
     style="display:none">
    <ellipse
       style="fill:none;stroke:#ffffff;stroke-width:0.73927647;stroke-opacity:1"
       id="path3882"
       cx="38.400002"
       cy="89.599739"
       rx="36.963696"
       ry="36.963951" />
    <path
       style="fill:none;stroke:#ffffff;stroke-width:1.58416343;stroke-linecap:butt;stroke-linejoin:round;stroke-miterlimit:4;stroke-dasharray:none;stroke-opacity:1"
       d="m 35.726698,65.672154 -2.211215,6.633714 c -1.369389,0.385755 -2.645739,0.968698 -3.861382,1.650176 l -6.303626,-3.135338 -3.72937,3.729402 3.135311,6.303677 c -0.681472,1.215653 -1.264407,2.492014 -1.650162,3.861414 l -6.63366,2.211237 v 5.346574 l 6.63366,2.211239 c 0.385755,1.369399 0.96869,2.645761 1.650162,3.861415 l -3.135311,6.303676 3.72937,3.72941 6.303626,-3.13535 c 1.215643,0.68148 2.491993,1.26443 3.861382,1.65017 l 2.211215,6.63373 h 5.346535 l 2.211215,-6.63373 c 1.369391,-0.38574 2.645739,-0.96869 3.861382,-1.65017 l 6.30363,3.13535 3.729366,-3.72941 -3.135309,-6.303676 c 0.681473,-1.215654 1.26441,-2.492016 1.650161,-3.861415 l 6.633659,-2.211239 v -5.346574 l -6.633659,-2.211237 c -0.385751,-1.3694 -0.968688,-2.645761 -1.650161,-3.861414 l 3.135309,-6.303677 -3.729366,-3.729402 -6.30363,3.135338 c -1.215643,-0.681478 -2.491991,-1.264421 -3.861382,-1.650176 l -2.211215,-6.633714 z"
       id="path3757"
       inkscape:connector-curvature="0" />
    <ellipse
       style="fill:none;stroke:#ffffff;stroke-width:1.58416343;stroke-miterlimit:4;stroke-dasharray:none;stroke-opacity:1"
       id="path3880"
       cx="38.399994"
       cy="89.599724"
       rx="11.617121"
       ry="11.617202" />
    <ellipse
       id="path3781"
       style="fill:#ffffff;fill-opacity:1;stroke:#ffffff;stroke-width:0.72007233;stroke-miterlimit:4;stroke-dasharray:none;stroke-opacity:1"
       cx="38.399998"
       cy="89.599739"
       rx="5.2804952"
       ry="5.2805324" />
  </g>
  <g
     inkscape:groupmode="layer"
     id="layer4"
     inkscape:label="black"
     transform="translate(0,-16.8)">
    <path
       style="fill:none;stroke:#000000;stroke-width:1.49933755;stroke-linecap:butt;stroke-linejoin:round;stroke-miterlimit:4;stroke-dasharray:none;stroke-opacity:1"
       d="m 26.843754,18.549669 -2.610734,7.83216 c -1.616782,0.455452 -3.123731,1.143705 -4.559003,1.94829 l -7.442504,-3.70176 -4.4031544,4.403155 3.7017674,7.442502 c -0.804592,1.435272 -1.49284,2.94222 -1.9482951,4.559014 l -7.8321621,2.610723 v 6.312485 l 7.8321621,2.610734 c 0.4554551,1.616784 1.1437031,3.123742 1.9482951,4.559001 l -3.7017674,7.442504 4.4031544,4.403166 7.442504,-3.701784 c 1.435272,0.804596 2.942221,1.492861 4.559003,1.94829 l 2.610734,7.832183 h 6.312476 l 2.610722,-7.832183 c 1.616801,-0.455429 3.123748,-1.143694 4.559016,-1.94829 l 7.442515,3.701784 4.403144,-4.403166 -3.701757,-7.442504 c 0.804597,-1.435259 1.49284,-2.942217 1.948283,-4.559001 l 7.832179,-2.610734 V 43.643753 L 50.418153,41.03303 C 49.96271,39.416236 49.274467,37.909288 48.46987,36.474016 l 3.701757,-7.442502 -4.403144,-4.403155 -7.442515,3.70176 C 38.8907,27.525534 37.383753,26.837281 35.766952,26.381829 l -2.610722,-7.83216 z"
       id="path3757-9"
       inkscape:connector-curvature="0" />
    <ellipse
       id="path3781-2"
       style="fill:#000000;fill-opacity:1;stroke:none;stroke-width:1.46544039;stroke-miterlimit:4;stroke-dasharray:none;stroke-opacity:1"
       cx="30.000013"
       cy="46.799976"
       rx="9.1692314"
       ry="9.1692257" />
  </g>
</svg>
