<?xml version="1.0" encoding="UTF-8" standalone="no"?>
<!-- Created with Inkscape (http://www.inkscape.org/) -->

<svg
   xmlns:dc="http://purl.org/dc/elements/1.1/"
   xmlns:cc="http://creativecommons.org/ns#"
   xmlns:rdf="http://www.w3.org/1999/02/22-rdf-syntax-ns#"
   xmlns:svg="http://www.w3.org/2000/svg"
   xmlns="http://www.w3.org/2000/svg"
   xmlns:sodipodi="http://sodipodi.sourceforge.net/DTD/sodipodi-0.dtd"
   xmlns:inkscape="http://www.inkscape.org/namespaces/inkscape"
   width="63"
   height="63"
   viewBox="0 0 16.66875 16.66875"
   version="1.1"
   id="svg5757"
   sodipodi:docname="upload.svg"
   inkscape:export-filename="/home/scwook/git/Drawing.Image/icons/export/4inch/upload_black_63x63.png"
   inkscape:export-xdpi="96"
   inkscape:export-ydpi="96"
   inkscape:version="0.92.1 r15371">
  <defs
     id="defs5751" />
  <sodipodi:namedview
     id="base"
     pagecolor="#c8c8c8"
     bordercolor="#666666"
     borderopacity="1.0"
     inkscape:pageopacity="0"
     inkscape:pageshadow="2"
     inkscape:zoom="1.979899"
     inkscape:cx="-97.767589"
     inkscape:cy="15.245336"
     inkscape:document-units="px"
     inkscape:current-layer="layer1"
     showgrid="false"
     units="px"
     inkscape:showpageshadow="false"
     showguides="false"
     inkscape:window-width="1920"
     inkscape:window-height="1051"
     inkscape:window-x="1920"
     inkscape:window-y="0"
     inkscape:window-maximized="1">
    <inkscape:grid
       type="xygrid"
       id="grid6326" />
  </sodipodi:namedview>
  <metadata
     id="metadata5754">
    <rdf:RDF>
      <cc:Work
         rdf:about="">
        <dc:format>image/svg+xml</dc:format>
        <dc:type
           rdf:resource="http://purl.org/dc/dcmitype/StillImage" />
        <dc:title></dc:title>
      </cc:Work>
    </rdf:RDF>
  </metadata>
  <g
     inkscape:label="Layer 1"
     inkscape:groupmode="layer"
     id="layer1"
     transform="translate(0,-280.33124)">
    <g
       id="g7613"
       transform="matrix(2.6067124,0,0,2.6067125,0.19307875,-477.38772)"
       style="stroke-width:0.26478428;stroke-miterlimit:4;stroke-dasharray:none">
      <path
         sodipodi:nodetypes="cccccccccccccc"
         inkscape:connector-curvature="0"
         id="path5208"
         d="m 4.1615667,295.04827 0.9328479,0.004 c 0.5199322,0 0.94142,-0.42149 0.9414212,-0.94142 -5.849e-4,-0.4943 -0.3833452,-0.90397 -0.8764666,-0.93807 -0.012672,-0.54418 -0.4573103,-0.9788 -1.0016359,-0.97905 -0.1510609,2.5e-4 -0.3001089,0.0346 -0.4360032,0.10057 -0.1483,-0.5033 -0.6102096,-0.8489 -1.1348902,-0.84916 -0.653715,3e-5 -1.1836488,0.52996 -1.1836758,1.18367 3.714e-4,0.0354 0.00232,0.0707 0.00586,0.10594 -0.015316,-9.7e-4 -0.030651,-0.002 -0.045998,-0.002 -0.63645021,7e-5 -1.15237623,0.516 -1.15245262,1.15245 -7.755e-5,0.63655 0.5158935,1.15265 1.15245302,1.15275 l 0.1915218,9.6e-4 0.5807489,0.002"
         style="display:inline;opacity:1;vector-effect:none;fill:none;fill-opacity:1;stroke:#000000;stroke-width:0.26478428;stroke-linecap:round;stroke-linejoin:round;stroke-miterlimit:4;stroke-dasharray:none;stroke-dashoffset:0;stroke-opacity:1;paint-order:fill markers stroke" />
      <path
         sodipodi:nodetypes="cccccccc"
         inkscape:connector-curvature="0"
         id="path6328"
         d="m 3.0605935,292.83785 -1.2521962,1.5779 h 0.8765372 v 1.89348 h 0.8765371 v -1.89348 h 0.8765373 z"
         style="fill:#000000;fill-opacity:1;stroke:#000000;stroke-width:0.26478428;stroke-linecap:butt;stroke-linejoin:round;stroke-miterlimit:4;stroke-dasharray:none;stroke-opacity:1" />
    </g>
  </g>
</svg>
