#define accelerator_control_130x24_width 130
#define accelerator_control_130x24_height 34
static unsigned char accelerator_control_130x24_bits[] = {
   0x00, 0x00, 0x00, 0x00, 0x00, 0x00, 0x00, 0x00, 0x00, 0x00, 0x00, 0x00,
   0x00, 0x00, 0x00, 0x00, 0x00, 0x00, 0x00, 0x00, 0x00, 0x00, 0x00, 0x00,
   0x00, 0x00, 0x00, 0x00, 0x00, 0x00, 0x00, 0x00, 0x00, 0x00, 0x00, 0x00,
   0x00, 0x00, 0x00, 0x00, 0x00, 0x00, 0x00, 0x00, 0x00, 0x00, 0x00, 0x00,
   0x00, 0x00, 0x00, 0x00, 0x60, 0x00, 0x00, 0x00, 0x00, 0x00, 0x00, 0x00,
   0x00, 0x00, 0x00, 0x00, 0x00, 0x00, 0x00, 0x00, 0x00, 0xfe, 0x07, 0x00,
   0x0c, 0xf8, 0xe0, 0xc3, 0x27, 0xf8, 0x3c, 0x20, 0xfc, 0xf8, 0xf0, 0x01,
   0x00, 0x80, 0x03, 0x1c, 0x00, 0x0c, 0x84, 0x31, 0x44, 0x20, 0x08, 0xc4,
   0x30, 0x10, 0x84, 0x11, 0x02, 0x00, 0xc0, 0x00, 0x70, 0x00, 0x0a, 0x02,
   0x18, 0x48, 0x20, 0x08, 0x84, 0x50, 0x10, 0x02, 0x12, 0x02, 0x00, 0x60,
   0xf8, 0xc3, 0x00, 0x12, 0x01, 0x08, 0x40, 0x20, 0x08, 0x84, 0x48, 0x10,
   0x03, 0x12, 0x02, 0x00, 0x10, 0x0e, 0x8f, 0x01, 0x11, 0x01, 0x08, 0xc0,
   0x27, 0x78, 0x84, 0x88, 0x10, 0x01, 0x12, 0x02, 0x00, 0x98, 0x03, 0x18,
   0x01, 0x31, 0x01, 0x08, 0x40, 0x20, 0x08, 0x74, 0x8c, 0x10, 0x01, 0xd2,
   0x01, 0x00, 0xcc, 0xf0, 0x30, 0x02, 0x21, 0x03, 0x08, 0x40, 0x20, 0x08,
   0x34, 0x84, 0x11, 0x02, 0x92, 0x00, 0x00, 0x44, 0xfc, 0x63, 0x86, 0x40,
   0x02, 0x11, 0x48, 0x20, 0x08, 0x24, 0x04, 0x11, 0x02, 0x13, 0x01, 0x00,
   0x66, 0x06, 0x46, 0x84, 0x40, 0x84, 0x31, 0x44, 0x20, 0x08, 0x44, 0x02,
   0x13, 0x84, 0x11, 0x01, 0x00, 0x26, 0x03, 0xcc, 0x04, 0x00, 0x78, 0xc0,
   0xc3, 0xe7, 0xf9, 0x00, 0x02, 0x02, 0x70, 0x10, 0x02, 0x00, 0x32, 0x01,
   0x08, 0x00, 0x00, 0x00, 0x00, 0x00, 0x00, 0x00, 0x00, 0x00, 0x00, 0x00,
   0x00, 0xe0, 0x00, 0x32, 0x01, 0x00, 0x00, 0x00, 0x00, 0x00, 0x00, 0x00,
   0x00, 0x00, 0x00, 0x00, 0x00, 0x00, 0xf0, 0x01, 0x92, 0xc1, 0xff, 0xff,
   0xff, 0xff, 0xff, 0xff, 0xff, 0xff, 0xff, 0xff, 0xff, 0xff, 0xff, 0xff,
   0x01, 0x92, 0xc1, 0xff, 0xff, 0xff, 0xff, 0xff, 0xff, 0xff, 0xff, 0xff,
   0xff, 0xff, 0xff, 0xff, 0xff, 0x01, 0x32, 0x01, 0x00, 0x00, 0x00, 0x00,
   0x00, 0x00, 0x00, 0x00, 0x00, 0x00, 0x00, 0x00, 0x00, 0xf0, 0x01, 0x32,
   0x01, 0x08, 0x00, 0x00, 0x00, 0x00, 0x00, 0x00, 0x00, 0x00, 0x00, 0x00,
   0x00, 0x00, 0xe0, 0x00, 0x26, 0x03, 0xcc, 0x04, 0x00, 0x00, 0x0e, 0x70,
   0x10, 0xe0, 0x7b, 0xc0, 0x41, 0x00, 0x00, 0x00, 0x00, 0x66, 0x06, 0x46,
   0x04, 0x00, 0x80, 0x31, 0x84, 0x31, 0x80, 0x88, 0x31, 0x46, 0x00, 0x00,
   0x00, 0x00, 0x44, 0xfc, 0x63, 0x06, 0x00, 0xc0, 0x40, 0x02, 0x71, 0x80,
   0x08, 0x09, 0x48, 0x00, 0x00, 0x00, 0x00, 0xcc, 0xf0, 0x30, 0x03, 0x00,
   0x40, 0x00, 0x01, 0x52, 0x80, 0x08, 0x09, 0x48, 0x00, 0x00, 0x00, 0x00,
   0x98, 0x03, 0x18, 0x01, 0x00, 0x40, 0x00, 0x01, 0x92, 0x80, 0x08, 0x01,
   0x50, 0x00, 0x00, 0x00, 0x00, 0x10, 0x0e, 0x8f, 0x01, 0x00, 0x40, 0x00,
   0x01, 0x92, 0x81, 0xc8, 0x05, 0x50, 0x00, 0x00, 0x00, 0x00, 0x60, 0xf8,
   0xc3, 0x00, 0x00, 0x40, 0x00, 0x01, 0x12, 0x81, 0x48, 0x08, 0x48, 0x00,
   0x00, 0x00, 0x00, 0xc0, 0x00, 0x70, 0x00, 0x00, 0x40, 0x00, 0x02, 0x13,
   0x86, 0x48, 0x08, 0x48, 0x00, 0x00, 0x00, 0x00, 0x80, 0x03, 0x1c, 0x00,
   0x00, 0x80, 0x20, 0x86, 0x11, 0x84, 0x88, 0x10, 0x44, 0x00, 0x00, 0x00,
   0x00, 0x00, 0xfe, 0x07, 0x00, 0x00, 0x00, 0x1f, 0xf8, 0x10, 0x84, 0x08,
   0xe1, 0xc3, 0x07, 0x00, 0x00, 0x00, 0x00, 0x40, 0x00, 0x00, 0x00, 0x00,
   0x00, 0x00, 0x00, 0x00, 0x00, 0x00, 0x00, 0x00, 0x00, 0x00, 0x00, 0x00,
   0x00, 0x00, 0x00, 0x00, 0x00, 0x00, 0x00, 0x00, 0x00, 0x00, 0x00, 0x00,
   0x00, 0x00, 0x00, 0x00, 0x00, 0x00, 0x00, 0x00, 0x00, 0x00, 0x00, 0x00,
   0x00, 0x00, 0x00, 0x00, 0x00, 0x00, 0x00, 0x00, 0x00, 0x00, 0x00, 0x00,
   0x00, 0x00, 0x00, 0x00, 0x00, 0x00, 0x00, 0x00, 0x00, 0x00, 0x00, 0x00,
   0x00, 0x00 };
