#define arc_top_left_width 19
#define arc_top_left_height 19
static unsigned char arc_top_left_bits[] = {
   0x00, 0x00, 0x00, 0x00, 0xc0, 0x01, 0x00, 0xf8, 0x01, 0x00, 0xfc, 0x01,
   0x00, 0xff, 0x01, 0x80, 0xff, 0x01, 0xc0, 0xff, 0x01, 0xe0, 0x7f, 0x00,
   0xf0, 0x1f, 0x00, 0xf0, 0x07, 0x00, 0xf8, 0x03, 0x00, 0xfc, 0x03, 0x00,
   0xfc, 0x01, 0x00, 0xfc, 0x01, 0x00, 0xfe, 0x00, 0x00, 0xfe, 0x00, 0x00,
   0xfe, 0x00, 0x00, 0x00, 0x00, 0x00, 0x00, 0x00, 0x00 };
