#define battery_low_16x10_width 16
#define battery_low_16x10_height 10
static unsigned char battery_low_16x10_bits[] = {
   0xfe, 0xff, 0x02, 0x80, 0x03, 0xb8, 0x01, 0xb8, 0x01, 0xb8, 0x01, 0xb8,
   0x01, 0xb8, 0x03, 0xb8, 0x02, 0x80, 0xfe, 0xff };
