#define battery_empty_16x10_width 16
#define battery_empty_16x10_height 10
static unsigned char battery_empty_16x10_bits[] = {
   0xfe, 0xff, 0x02, 0x80, 0x03, 0x80, 0x01, 0x80, 0x01, 0x80, 0x01, 0x80,
   0x01, 0x80, 0x03, 0x80, 0x02, 0x80, 0xfe, 0xff };
