#define battery_16x8_width 16
#define battery_16x8_height 8
static unsigned char battery_16x8_bits[] = {
   0xff, 0xff, 0xff, 0xff, 0x03, 0xc0, 0x9b, 0xd9, 0x9b, 0xd9, 0x03, 0xc0,
   0xff, 0xff, 0xff, 0xff };
