#define battery_full_16x10_width 16
#define battery_full_16x10_height 10
static unsigned char battery_full_16x10_bits[] = {
   0xfe, 0xff, 0x02, 0x80, 0xbb, 0xbb, 0xb9, 0xbb, 0xb9, 0xbb, 0xb9, 0xbb,
   0xb9, 0xbb, 0xbb, 0xbb, 0x02, 0x80, 0xfe, 0xff };
