#define battery_high_16x10_width 16
#define battery_high_16x10_height 10
static unsigned char battery_high_16x10_bits[] = {
   0xfe, 0xff, 0x02, 0x80, 0x83, 0xbb, 0x81, 0xbb, 0x81, 0xbb, 0x81, 0xbb,
   0x81, 0xbb, 0x83, 0xbb, 0x02, 0x80, 0xfe, 0xff };
