#define circle_read3_width 24
#define circle_read3_height 24
static unsigned char circle_read3_bits[] = {
   0x00, 0x7e, 0x00, 0xc0, 0xff, 0x03, 0xf0, 0xff, 0x0f, 0xf8, 0xff, 0x1f,
   0xfc, 0x81, 0x3f, 0x7c, 0x00, 0x3e, 0x3e, 0x00, 0x7c, 0x1e, 0x00, 0x78,
   0x1e, 0x3c, 0x78, 0x0f, 0x66, 0xf0, 0x0f, 0xc3, 0xf0, 0x0f, 0x81, 0xf0,
   0x0f, 0x81, 0xf0, 0x0f, 0xc3, 0xf0, 0x1f, 0x66, 0xf0, 0x1e, 0x3c, 0x78,
   0x1e, 0x00, 0x78, 0x3e, 0x00, 0x78, 0x7c, 0x00, 0x3e, 0xfc, 0x81, 0x3f,
   0xf8, 0xff, 0x1f, 0xf0, 0xff, 0x0f, 0xc0, 0xff, 0x03, 0x00, 0x7e, 0x00 };
