#define circle_frame_width 24
#define circle_frame_height 24
static unsigned char circle_frame_bits[] = {
   0x00, 0x7e, 0x00, 0xc0, 0xc3, 0x03, 0x70, 0x00, 0x0e, 0x18, 0x00, 0x18,
   0x0c, 0x7e, 0x30, 0x84, 0xc3, 0x21, 0xc6, 0x00, 0x63, 0x62, 0x00, 0x46,
   0x22, 0x3c, 0x44, 0x33, 0x66, 0xcc, 0x11, 0xc3, 0x88, 0x11, 0x81, 0x88,
   0x11, 0x81, 0x88, 0x31, 0xc3, 0x88, 0x33, 0x66, 0xcc, 0x22, 0x3c, 0x44,
   0x62, 0x00, 0x46, 0xc6, 0x00, 0x63, 0x84, 0xc3, 0x21, 0x0c, 0x7e, 0x30,
   0x18, 0x00, 0x18, 0x70, 0x00, 0x0e, 0xc0, 0xc3, 0x03, 0x00, 0x7e, 0x00 };
