#define circle_read2_width 24
#define circle_read2_height 24
static unsigned char circle_read2_bits[] = {
   0x00, 0x7e, 0x00, 0xc0, 0xc3, 0x03, 0x70, 0x00, 0x0e, 0x18, 0x00, 0x18,
   0x0c, 0x7e, 0x30, 0x84, 0xff, 0x21, 0xc6, 0xff, 0x63, 0xe2, 0xff, 0x47,
   0xe2, 0xc3, 0x47, 0xf3, 0x81, 0xcf, 0xf1, 0x00, 0x8f, 0xf1, 0x00, 0x8f,
   0xf1, 0x00, 0x8f, 0xf1, 0x00, 0x8f, 0xf3, 0x81, 0xcf, 0xe2, 0xc3, 0x47,
   0xe2, 0xff, 0x47, 0xc6, 0xff, 0x63, 0x84, 0xff, 0x21, 0x0c, 0x7e, 0x30,
   0x18, 0x00, 0x18, 0x70, 0x00, 0x0e, 0xc0, 0xc3, 0x03, 0x00, 0x7e, 0x00 };
