#define epics_width 12
#define epics_height 13
static unsigned char epics_bits[] = {
   0x3e, 0x00, 0x3e, 0x00, 0x3e, 0x00, 0x3e, 0x00, 0x3e, 0x00, 0x08, 0x00,
   0xff, 0x0f, 0x00, 0x01, 0xc0, 0x07, 0xc0, 0x07, 0xc0, 0x07, 0xc0, 0x07,
   0xc0, 0x07 };
