#define number_2_9x13_width 9
#define number_2_9x13_height 13
static unsigned char number_2_9x13_bits[] = {
   0x7e, 0x00, 0xff, 0x00, 0xe7, 0x01, 0xc0, 0x01, 0xc0, 0x01, 0xe0, 0x01,
   0xf0, 0x00, 0x78, 0x00, 0x3c, 0x00, 0x1e, 0x00, 0x0f, 0x00, 0xff, 0x01,
   0xff, 0x01 };
