#define oxygen_width 43
#define oxygen_height 43
static unsigned char oxygen_bits[] = {
   0xc0, 0xff, 0xff, 0xff, 0x1f, 0x00, 0xf0, 0xff, 0xff, 0xff, 0x7f, 0x00,
   0x78, 0x00, 0x00, 0x00, 0xf0, 0x00, 0x1c, 0x00, 0x00, 0x00, 0xc0, 0x01,
   0x0e, 0x00, 0x00, 0x00, 0x80, 0x03, 0x06, 0x00, 0x00, 0x00, 0x00, 0x03,
   0x07, 0x00, 0x00, 0x00, 0x00, 0x07, 0x03, 0x00, 0x00, 0x00, 0x00, 0x06,
   0x03, 0x00, 0x00, 0x00, 0x00, 0x06, 0x03, 0x00, 0x00, 0x00, 0x00, 0x06,
   0x03, 0x00, 0x00, 0x00, 0x00, 0x06, 0x03, 0x00, 0x00, 0x00, 0x00, 0x06,
   0x03, 0x00, 0x7c, 0x00, 0x00, 0x06, 0x03, 0x00, 0xff, 0x01, 0x00, 0x06,
   0x03, 0xc0, 0xff, 0x07, 0x00, 0x06, 0x03, 0xe0, 0x83, 0x0f, 0x00, 0x06,
   0x03, 0xe0, 0x00, 0x0e, 0x00, 0x06, 0x03, 0x70, 0x00, 0x1c, 0x00, 0x06,
   0x03, 0x70, 0x00, 0x1c, 0x00, 0x06, 0x03, 0x38, 0x00, 0x38, 0x00, 0x06,
   0x03, 0x38, 0x00, 0x38, 0x00, 0x06, 0x03, 0x38, 0x00, 0x38, 0x00, 0x06,
   0x03, 0x38, 0x00, 0x38, 0x00, 0x06, 0x03, 0x38, 0x00, 0x38, 0x1e, 0x06,
   0x03, 0x70, 0x00, 0x1c, 0x33, 0x06, 0x03, 0x70, 0x00, 0x1c, 0x30, 0x06,
   0x03, 0xe0, 0x01, 0x0e, 0x18, 0x06, 0x03, 0xe0, 0x83, 0x0f, 0x0c, 0x06,
   0x03, 0xc0, 0xff, 0x07, 0x06, 0x06, 0x03, 0x00, 0xff, 0x01, 0x03, 0x06,
   0x03, 0x00, 0x7c, 0x00, 0x3f, 0x06, 0x03, 0x00, 0x00, 0x00, 0x00, 0x06,
   0x03, 0x00, 0x00, 0x00, 0x00, 0x06, 0x03, 0x00, 0x00, 0x00, 0x00, 0x06,
   0x03, 0x00, 0x00, 0x00, 0x00, 0x06, 0x03, 0x00, 0x00, 0x00, 0x00, 0x06,
   0x07, 0x00, 0x00, 0x00, 0x00, 0x07, 0x06, 0x00, 0x00, 0x00, 0x00, 0x03,
   0x0e, 0x00, 0x00, 0x00, 0x80, 0x03, 0x1c, 0x00, 0x00, 0x00, 0xc0, 0x01,
   0x78, 0x00, 0x00, 0x00, 0xf0, 0x00, 0xf0, 0xff, 0xff, 0xff, 0x7f, 0x00,
   0xc0, 0xff, 0xff, 0xff, 0x1f, 0x00 };
