<?xml version="1.0" encoding="UTF-8" standalone="no"?>
<!-- Created with Inkscape (http://www.inkscape.org/) -->

<svg
   xmlns:dc="http://purl.org/dc/elements/1.1/"
   xmlns:cc="http://creativecommons.org/ns#"
   xmlns:rdf="http://www.w3.org/1999/02/22-rdf-syntax-ns#"
   xmlns:svg="http://www.w3.org/2000/svg"
   xmlns="http://www.w3.org/2000/svg"
   xmlns:sodipodi="http://sodipodi.sourceforge.net/DTD/sodipodi-0.dtd"
   xmlns:inkscape="http://www.inkscape.org/namespaces/inkscape"
   width="130"
   height="36"
   viewBox="0 0 34.395833 9.5250006"
   version="1.1"
   id="svg4815"
   inkscape:export-filename="/home/scwook/raon_130x36.png"
   inkscape:export-xdpi="96"
   inkscape:export-ydpi="96"
   inkscape:version="0.92.1 r15371"
   sodipodi:docname="raon_symbol.svg">
  <defs
     id="defs4809">
    <clipPath
       id="clipPath3046"
       clipPathUnits="userSpaceOnUse">
      <path
         id="path3048"
         d="m 115.994,375.419 h 67.27 v -67.27 h -67.27 z"
         inkscape:connector-curvature="0" />
    </clipPath>
    <clipPath
       id="clipPath3078"
       clipPathUnits="userSpaceOnUse">
      <path
         id="path3080"
         d="m 133.117,358.296 h 33.024 v -33.024 h -33.024 z"
         inkscape:connector-curvature="0" />
    </clipPath>
  </defs>
  <sodipodi:namedview
     id="base"
     pagecolor="#ffffff"
     bordercolor="#666666"
     borderopacity="1.0"
     inkscape:pageopacity="0.0"
     inkscape:pageshadow="2"
     inkscape:zoom="3.959798"
     inkscape:cx="95.490668"
     inkscape:cy="7.3153651"
     inkscape:document-units="mm"
     inkscape:current-layer="layer1"
     showgrid="false"
     units="px"
     inkscape:pagecheckerboard="true"
     inkscape:showpageshadow="false"
     inkscape:window-width="1920"
     inkscape:window-height="1051"
     inkscape:window-x="1920"
     inkscape:window-y="0"
     inkscape:window-maximized="1" />
  <metadata
     id="metadata4812">
    <rdf:RDF>
      <cc:Work
         rdf:about="">
        <dc:format>image/svg+xml</dc:format>
        <dc:type
           rdf:resource="http://purl.org/dc/dcmitype/StillImage" />
        <dc:title></dc:title>
      </cc:Work>
    </rdf:RDF>
  </metadata>
  <g
     inkscape:label="Layer 1"
     inkscape:groupmode="layer"
     id="layer1"
     transform="translate(0,-287.47498)">
    <g
       id="g5486"
       transform="matrix(0.99810072,0,0,0.99955485,0.01919203,-9.6967326)">
      <path
         inkscape:connector-curvature="0"
         id="path5477"
         d="m 33.042217,306.27178 c -0.131226,-0.0326 -0.255694,-0.10279 -0.340138,-0.19187 -0.127849,-0.13487 -2.608665,-3.37232 -3.013763,-3.93295 l -0.384154,-0.53163 -0.006,2.30508 -0.006,2.30508 h -0.697103 -0.6971 l 0.0062,-3.28958 0.0062,-3.28957 0.05432,-0.11812 c 0.119279,-0.25937 0.349964,-0.41278 0.621331,-0.41318 0.179771,-2.7e-4 0.277776,0.0282 0.412449,0.11968 0.104002,0.0707 2.44924,3.09764 3.091828,3.99058 0.191675,0.26636 0.363429,0.49985 0.381675,0.51888 0.02849,0.0297 0.03317,-0.28954 0.03317,-2.26196 v -2.29654 h 0.697452 0.697455 l -0.0065,3.27776 -0.0065,3.27777 -0.05453,0.12045 c -0.134972,0.29816 -0.492995,0.48393 -0.790382,0.41012 z"
         style="opacity:1;vector-effect:none;fill:#000000;fill-opacity:1;stroke:#000000;stroke-width:0.02362351;stroke-linecap:butt;stroke-linejoin:miter;stroke-miterlimit:4;stroke-dasharray:none;stroke-dashoffset:0;stroke-opacity:1;paint-order:fill markers stroke" />
      <path
         inkscape:connector-curvature="0"
         id="path5479"
         d="m 23.138426,306.27036 c -1.612885,-0.16826 -2.903251,-1.38882 -3.168958,-2.99753 -0.04983,-0.30167 -0.04931,-0.86687 0.0011,-1.15783 0.229897,-1.32817 1.142222,-2.40959 2.380294,-2.82148 0.431005,-0.14339 0.590178,-0.1669 1.130154,-0.1669 0.540591,0 0.699012,0.0235 1.132519,0.16769 1.341617,0.44636 2.320338,1.72301 2.406933,3.1396 0.0521,0.85223 -0.14115,1.58574 -0.597344,2.26736 -0.609124,0.91011 -1.527229,1.45792 -2.631599,1.57021 -0.272912,0.0278 -0.378,0.0276 -0.65305,-10e-4 z m 0.834332,-1.43888 c 0.753339,-0.18048 1.356462,-0.78918 1.568049,-1.58256 0.07709,-0.28907 0.07637,-0.82068 -0.0015,-1.1103 -0.115516,-0.42958 -0.317362,-0.76554 -0.646668,-1.07633 -0.232615,-0.21954 -0.462215,-0.35657 -0.773823,-0.46182 -0.199729,-0.0675 -0.260815,-0.0769 -0.555153,-0.086 -0.374687,-0.0116 -0.545457,0.0151 -0.851846,0.1333 -0.605049,0.23333 -1.113647,0.81728 -1.288204,1.47906 -0.07489,0.28393 -0.08647,0.71638 -0.02689,1.00411 0.255443,1.23354 1.392436,1.98412 2.576049,1.70056 z"
         style="opacity:1;vector-effect:none;fill:#000000;fill-opacity:1;stroke:#000000;stroke-width:0.02362351;stroke-linecap:butt;stroke-linejoin:miter;stroke-miterlimit:4;stroke-dasharray:none;stroke-dashoffset:0;stroke-opacity:1;paint-order:fill markers stroke" />
      <path
         inkscape:connector-curvature="0"
         id="path5481"
         d="m 10.192742,304.59406 c -1.6599394,-2.04544 -1.5237171,-1.86615 -1.5237171,-2.00548 0,-0.0787 0.014941,-0.13185 0.049333,-0.17558 0.1052468,-0.1338 0.094503,-0.13264 1.2326877,-0.13264 1.1522404,0 1.1931834,-0.004 1.4157184,-0.14549 0.604635,-0.38386 0.556395,-1.27366 -0.08734,-1.61105 l -0.141741,-0.0743 -3.4049203,-0.006 -3.4049202,-0.006 -0.086098,0.1813 c -0.5064178,1.06637 -1.7770495,1.45511 -2.795727,0.85533 -0.1964418,-0.11567 -0.54632819,-0.4708 -0.66342065,-0.67337 -0.0536942,-0.0929 -0.13158761,-0.26829 -0.17309653,-0.38979 -0.0667216,-0.19528 -0.0766031,-0.25786 -0.0852385,-0.53981 -0.0139558,-0.45566 0.0678904,-0.76602 0.295387,-1.12011 0.49543868,-0.77112 1.42489248,-1.09419 2.29002008,-0.79599 0.5095319,0.17563 0.9398272,0.5765 1.1545532,1.07559 l 0.06989,0.16245 2.0906809,-0.0121 c 1.1498744,-0.007 2.7497767,-0.005 3.5553385,0.004 1.6111385,0.0181 1.5199175,0.01 1.9214305,0.17407 0.362343,0.14819 0.778621,0.50882 1.00312,0.86901 0.470893,0.75552 0.411982,1.75962 -0.144182,2.45753 -0.393778,0.49415 -0.86054,0.727 -1.581397,0.78893 l -0.194817,0.0167 0.16602,0.18004 c 0.09131,0.099 0.565316,0.64247 1.053343,1.20766 0.488026,0.56519 0.892302,1.02762 0.89839,1.02762 0.0061,0 0.674555,-1.4545 1.485483,-3.23223 0.825652,-1.81001 1.506256,-3.27244 1.546778,-3.3236 0.04216,-0.0532 0.132742,-0.12154 0.21701,-0.16365 0.18986,-0.0949 0.416801,-0.10108 0.598707,-0.0164 0.25368,0.11813 0.193479,5.6e-4 1.761595,3.44037 0.790736,1.73456 1.485312,3.25753 1.543502,3.38439 l 0.1058,0.23065 -0.768621,-0.006 -0.768621,-0.006 -0.356544,-0.80911 -0.356544,-0.80911 H 16.664421 15.21826 l -0.360557,0.81502 -0.360556,0.81501 -1.490745,-6.4e-4 -1.490744,-6.3e-4 z m 7.382347,-1.19415 c 0,-0.008 -0.147749,-0.35074 -0.32833,-0.76186 -0.180582,-0.41111 -0.383765,-0.88926 -0.451517,-1.06254 -0.06775,-0.17329 -0.131198,-0.30617 -0.14099,-0.2953 -0.0098,0.0109 -0.06867,0.15266 -0.130851,0.31507 -0.06218,0.16241 -0.260259,0.62928 -0.440185,1.03748 -0.179926,0.4082 -0.327138,0.75104 -0.327138,0.76186 0,0.0108 0.409278,0.0197 0.909506,0.0197 0.500227,0 0.909505,-0.006 0.909505,-0.0144 z"
         style="opacity:1;vector-effect:none;fill:#000000;fill-opacity:1;stroke:#000000;stroke-width:0.02362351;stroke-linecap:butt;stroke-linejoin:miter;stroke-miterlimit:4;stroke-dasharray:none;stroke-dashoffset:0;stroke-opacity:1;paint-order:fill markers stroke" />
    </g>
  </g>
</svg>
