#define temperature_13x20_width 13
#define temperature_13x20_height 20
static unsigned char temperature_13x20_bits[] = {
   0x00, 0x00, 0xe0, 0x00, 0x10, 0x01, 0x90, 0x01, 0x10, 0x01, 0x90, 0x01,
   0x10, 0x01, 0x10, 0x01, 0x90, 0x01, 0x10, 0x01, 0x18, 0x03, 0x0c, 0x06,
   0x04, 0x04, 0x02, 0x08, 0x02, 0x08, 0x06, 0x0c, 0x04, 0x04, 0x0c, 0x06,
   0xf8, 0x01, 0x00, 0x00 };
