#define thermometer_width 11
#define thermometer_height 22
static unsigned char thermometer_bits[] = {
   0x00, 0x00, 0x70, 0x00, 0xd8, 0x00, 0x88, 0x00, 0x88, 0x00, 0x88, 0x00,
   0x88, 0x00, 0xa8, 0x00, 0xa8, 0x00, 0xa8, 0x00, 0xa8, 0x00, 0xa8, 0x00,
   0xf8, 0x00, 0xfc, 0x01, 0xfe, 0x03, 0xff, 0x07, 0xff, 0x07, 0xff, 0x07,
   0xff, 0x07, 0xfe, 0x03, 0xfc, 0x01, 0xf8, 0x00 };
