#define wifi_s3_width 9
#define wifi_s3_height 11
static unsigned char wifi_s3_bits[] = {
   0x00, 0x00, 0x00, 0x00, 0x00, 0x00, 0x00, 0x00, 0x10, 0x00, 0x10, 0x00,
   0x14, 0x00, 0x14, 0x00, 0x15, 0x00, 0x15, 0x00, 0x15, 0x00 };
