#define wifi_s4_width 9
#define wifi_s4_height 11
static unsigned char wifi_s4_bits[] = {
   0x00, 0x00, 0x00, 0x00, 0x40, 0x00, 0x40, 0x00, 0x50, 0x00, 0x50, 0x00,
   0x54, 0x00, 0x54, 0x00, 0x55, 0x00, 0x55, 0x00, 0x55, 0x00 };
