#define wifi_s5_width 9
#define wifi_s5_height 11
static unsigned char wifi_s5_bits[] = {
   0x00, 0x01, 0x00, 0x01, 0x40, 0x01, 0x40, 0x01, 0x50, 0x01, 0x50, 0x01,
   0x54, 0x01, 0x54, 0x01, 0x55, 0x01, 0x55, 0x01, 0x55, 0x01 };
