#define wifi_s3_width 14
#define wifi_s3_height 12
static unsigned char wifi_s3_bits[] = {
   0x00, 0x00, 0x00, 0x00, 0x00, 0x00, 0x00, 0x03, 0x00, 0x03, 0x00, 0x03,
   0x30, 0x03, 0x30, 0x03, 0x30, 0x03, 0x33, 0x03, 0x33, 0x03, 0x33, 0x03 };
