#define wifi_s2_width 14
#define wifi_s2_height 12
static unsigned char wifi_s2_bits[] = {
   0x00, 0x00, 0x00, 0x00, 0x00, 0x00, 0x00, 0x00, 0x00, 0x00, 0x00, 0x00,
   0x30, 0x00, 0x30, 0x00, 0x30, 0x00, 0x33, 0x00, 0x33, 0x00, 0x33, 0x00 };
